<svg xmlns="http://www.w3.org/2000/svg" viewBox="0 0 1600 900">
  <defs>
    <linearGradient id="bg" x1="0" y1="0" x2="1" y2="1">
      <stop offset="0%" stop-color="#0b2744"/>
      <stop offset="100%" stop-color="#153b63"/>
    </linearGradient>
  </defs>
  <rect width="1600" height="900" fill="url(#bg)"/>
  <rect x="70" y="80" width="1460" height="740" rx="30" fill="#f7f2e9" opacity="0.08"/>
  <path d="M120 720 L330 520 L500 610 L710 430 L950 540 L1180 310 L1480 500 L1480 770 L120 770 Z" fill="#b98a2c" opacity="0.55"/>
  <path d="M120 770 L120 610 L280 480 L480 560 L690 370 L930 480 L1150 260 L1480 420 L1480 770 Z" fill="#f6e3b2" opacity="0.20"/>
  <circle cx="1260" cy="260" r="78" fill="#b98a2c" opacity="0.22"/>
  <g fill="#f7f2e9" opacity="0.92">
    <rect x="160" y="170" width="150" height="18" rx="9"/>
    <rect x="160" y="230" width="730" height="46" rx="10"/>
    <rect x="160" y="292" width="615" height="46" rx="10"/>
    <rect x="160" y="380" width="540" height="22" rx="10" opacity="0.78"/>
    <rect x="160" y="420" width="460" height="22" rx="10" opacity="0.62"/>
  </g>
  <text x="160" y="147" fill="#f3d792" font-family="Georgia, serif" font-size="30" letter-spacing="4">RAPPORT</text>
  <text x="160" y="660" fill="#f7f2e9" font-family="Georgia, serif" font-size="32" letter-spacing="2">MARKNADSSAMFUNDET</text>
</svg>